/* XPM */
static char *floor__1_1721751706[] = {
/* columns rows colors chars-per-pixel */
"70 70 256 2 ",
"   c #795EB0",
".  c #5B72B8",
"X  c #656DBB",
"o  c #716FAE",
"O  c #7A679F",
"+  c #377CDA",
"@  c #307BF1",
"#  c #0B7FEF",
"$  c #5674C7",
"%  c #4F75CF",
"&  c #666FC7",
"*  c #4277E3",
"=  c #8D57B1",
"-  c #886DAD",
";  c #86699F",
":  c #4998BA",
">  c #4990B7",
",  c #7A98B7",
"<  c #708CB5",
"1  c #53AABD",
"2  c #6CADBD",
"3  c #38F0BB",
"4  c #59D7B7",
"5  c #75DAB9",
"6  c #6ED9B1",
"7  c #78E7B8",
"8  c #77E5AF",
"9  c #4EEDB8",
"0  c #398AD8",
"q  c #3796D7",
"w  c #3290D1",
"e  c #2AA5D9",
"r  c #34A4D8",
"t  c #2CB8DA",
"y  c #1C8AEB",
"u  c #1797EA",
"i  c #1E87F4",
"p  c #1D8BF4",
"a  c #188AFA",
"s  c #0B99F9",
"d  c #1594F2",
"f  c #1B92F2",
"g  c #139BF3",
"h  c #1C9CF3",
"j  c #1698FC",
"k  c #068DF6",
"l  c #2689E9",
"z  c #2597E9",
"x  c #2286F4",
"c  c #2389F4",
"v  c #2687FA",
"b  c #2196F1",
"n  c #229BF3",
"m  c #249AF9",
"M  c #3491EB",
"N  c #1AA5EB",
"B  c #1DBBEE",
"V  c #1AB5EA",
"C  c #03A5F4",
"Z  c #0CA3F4",
"A  c #07A7F9",
"S  c #14A2F3",
"D  c #1BA4F3",
"F  c #18A8F9",
"G  c #09B4F8",
"H  c #1DBBF3",
"J  c #19B7F7",
"K  c #0DA7E9",
"L  c #26A9EA",
"P  c #34A3E5",
"I  c #26B6EA",
"U  c #23A7F3",
"Y  c #24B4F3",
"T  c #23BBF3",
"R  c #26B8F9",
"E  c #34B3F1",
"W  c #19A1D9",
"Q  c #4789CB",
"!  c #4B97C7",
"~  c #4788D5",
"^  c #5391CD",
"/  c #4AA7C7",
"(  c #55A8C7",
")  c #4AB6C7",
"_  c #58B8C9",
"`  c #49BAD5",
"'  c #53B0D4",
"]  c #6AA6C4",
"[  c #6CB4CD",
"{  c #55AAE8",
"}  c #6FB2EA",
"|  c #619AD4",
" . c #19DBC9",
".. c #19CCDA",
"X. c #0CDBD5",
"o. c #0CD6DD",
"O. c #0CDBDA",
"+. c #05D9D8",
"@. c #12DDD5",
"#. c #1BDDD5",
"$. c #13D6DD",
"%. c #1BD4DB",
"&. c #13DBDB",
"*. c #1ADCDB",
"=. c #18D3D5",
"-. c #0BD3CF",
";. c #3AC8D7",
":. c #23DCDB",
">. c #26D5D9",
",. c #34D5D4",
"<. c #08E6CA",
"1. c #15E5CB",
"2. c #0DE2D4",
"3. c #0DE2DA",
"4. c #04E4D5",
"5. c #13E2D5",
"6. c #1CE3D5",
"7. c #14E3DB",
"8. c #1CE3DA",
"9. c #18EBD8",
"0. c #19F6D3",
"q. c #25E8CC",
"w. c #39EDC9",
"e. c #38F2CA",
"r. c #2DEBD5",
"t. c #23E3DB",
"y. c #2BE6DA",
"u. c #25EADB",
"i. c #2CEBDA",
"p. c #26E5D4",
"a. c #34EBD5",
"s. c #3CEBD4",
"d. c #33EBDA",
"f. c #3BECDA",
"g. c #38E4D8",
"h. c #2BF3DA",
"j. c #37F2DA",
"k. c #2EF2CB",
"l. c #05CCE6",
"z. c #14CCE5",
"x. c #1CC3ED",
"c. c #15CBE9",
"v. c #1BCAEC",
"b. c #17C6E7",
"n. c #07D7E6",
"m. c #15D3E2",
"M. c #1BD4E3",
"N. c #14DBE3",
"B. c #1CDBE3",
"V. c #16D7EB",
"C. c #06CAF6",
"Z. c #19C4F5",
"A. c #07D7F4",
"S. c #22C8E7",
"D. c #24D8E4",
"F. c #35D9E5",
"G. c #2FC6F0",
"H. c #05E2E6",
"J. c #17E4E5",
"K. c #27E6E5",
"L. c #3DEDE3",
"P. c #39E8E6",
"I. c #2AF8E5",
"U. c #37F3E3",
"Y. c #3AEAF3",
"T. c #59C8CA",
"R. c #4BD5CC",
"E. c #58D8CA",
"W. c #57C7D6",
"Q. c #4ADCDC",
"!. c #48D8D9",
"~. c #57DAD9",
"^. c #4BC9CF",
"/. c #73DEC9",
"(. c #64DBD8",
"). c #6BCECD",
"_. c #44EDCB",
"`. c #4CEDCD",
"'. c #4CE8C7",
"]. c #53EBCD",
"[. c #58E7C9",
"{. c #42F0CC",
"}. c #43EBD4",
"|. c #4BEDD2",
" X c #44E4DD",
".X c #4CE4DC",
"XX c #43EBDA",
"oX c #49E5D7",
"OX c #55E5D4",
"+X c #5DE5D5",
"@X c #55EBD5",
"#X c #5CEAD5",
"$X c #53E3DB",
"%X c #5BE3DB",
"&X c #53EADC",
"*X c #5BEBDA",
"=X c #45F1D7",
"-X c #5AF3D8",
";X c #57F6CE",
":X c #6AE5CA",
">X c #77E3C7",
",X c #63E5D5",
"<X c #62EAD4",
"1X c #64E4DA",
"2X c #6AE3DB",
"3X c #63EADA",
"4X c #6CE6D5",
"5X c #76E5D7",
"6X c #65F2D5",
"7X c #47DDE3",
"8X c #54DDE4",
"9X c #40C0E5",
"0X c #6AD7E6",
"qX c #4CE4E3",
"wX c #45EAE3",
"eX c #4CEAE3",
"rX c #46E5E6",
"tX c #53E3E2",
"yX c #58E8E4",
"uX c #58F4E6",
"iX c #48F2E2",
"pX c #68E6E3",
"aX c #6FE7E4",
"sX c #91D79B",
"dX c #A6DD97",
"fX c #B2DC91",
"gX c #AAE496",
"hX c #97DAA8",
"jX c #8BDAB4",
"kX c #8FD4B0",
"lX c #A5DAA6",
"zX c #9AE3A7",
"xX c #87E3B8",
"cX c #95E2B6",
"vX c #88E5AA",
"bX c #A6E4A5",
"nX c #B1E2A1",
"mX c #8DE695",
"MX c #8DB9D6",
"NX c #82B7EE",
"BX c #8EDAD3",
"VX c #B0D3D6",
"CX c #89E6D8",
"ZX c #99E7D5",
"AX c #8CE5CA",
"SX c #AAE5D9",
"DX c #B7E6D8",
"FX c #B4E9CF",
"GX c #8CCCE9",
"HX c #AED2E6",
"JX c #92E7E3",
"KX c #BFE0E5",
"LX c #CCDAD3",
"PX c #CFE8D2",
"IX c #EDE9CC",
"UX c #8094B5",
/* pixels */
"|.}._.s.w.w.w.w.w.w.w.w.e.w.e.3 w.k.k.e.3 k.e.e.k.e.e.e.e.{.{.{.e.{._._.;X`.`.|.`.`.@X].;X[.<X#X<X[.<X<X#X#X[.[.<X<X#X#X].].`.`.=X|.|.|.|.|.",
"`.`.'._._.{._._.{.{.{.e.w.w.e.e.{.3 e.'.e.{.=Xe.{.`.{.`.|.`.`.@X#X;X#X<X'.;X[.;X`.-X].<X#X#XOXyX#X#X#X#X#X#X#X#X].#X#XOX].|.|.|.|.|.@X=X|.|.",
"].].`.].].`.`.].`.].`.|.|.|.|.|.qX|.L.|.`.=X[.&X@X].].@X#X].@XOX<X#X+X~.^.R.6X[.pX@X].*XOX@X-X+X@XOX].OXOX@X$XOX@X@X@X@X@X@X|.&X@X@X@X@X-X@X",
"<X#X#X#X@X@X#X@X@X@X-X@X@XOX@X@X|.|.[.oX[.&X$X@X].#X].OXOX].#X#X[.|.(.> ! / 1 @X0XOX].OX,X].'.+X%X+X&X+X*X&X@X@X#X&X#X&X*X&X*X-X*X#X-X-X-X*X",
"<X#X#X#X*X#X#X#X<X<X#X*X%X+X%X+XyX>XyX~.%X~.E.,X+X+X+X+X+X+X+X+X(.%XR.T.uXaX' W.pX[.pXW.W.(.2X2X+X%X%X+X+X*X*X*X#X#X*X#X#X#X3X#X#X#X#X#X<X#X",
"<X#X#X3X+X3X3X3X3X,X1X,X,X,X,X1XlXfXAX+X&X+X:X*X(.,X(.,X,X,X2X2X,XaX_ T.5X,X(.) E.aX1 ! ^ ! 1X`.,X+X,X+X+X+X+X+X,X#X,X+X#X<X<X,X#X<X<X3X3X#X",
"#X#X<X<X3X3X3X3X3X1X3X4X,X4X,X2XzX3XhX5XpX/.2X4X2X2X2X2X2X2X5X(.:X2X0X( ~.2X5X(.| > ) +XaXW._ pX1X1X+X1X,X+X,X,X,X#X+X<X<X,X<X*X3X#X<X<X#X-X",
"<X<X<X<X<X,X<X:X3X4X4X,X4X,X4X,XcXyX5XhX4X2X0XpX2X1X2X2X2X2X2X2XpX2X5X_ ( ( W.aX%X).aX<XaX_ _ 6X1X1X(.3X,X*X*X3X3X,X3X3X*X*X3X3X#X6X3X3X-X<X",
"6X3X<X,X3X<X,X3X3X<X:X*X4X,XyX>XcX3X2XcX>XyXaX/.1XpXpX5XpX/.pX1X2X#X3XaX).> | _ ' 5X:X(.: : 5X3XpX3X2XyX,X*X,X5X1X*X*X6X,X<X<X2X-X,X*X3X*X-X",
"3X3X<X<X3X#X,X<X<XyXuXpX,X+XyX>XcX(.tX2XAXpX(.1X(.5XjXfXnXnXhX4X5X0X` > > T.0X' ! ~.0X> W.uXpX1X(.3X1X,X1X+X1XuXpX1X3X-X4XuX3XuX3X3X*XpX3X*X",
"<X3X<X<X3X<X3X4X5X7 :XyX%X1XyX/.AX~.tX/.jX%X1XyX5XfXhX5X(.,XxX5X(.: ( 0XaX-X#XT./ 3X' > _ 1 ' *X,X3X3X~.3X1X*XT.O ; , pX2X3X, 2 5XuX&X,XuX*X",
"<X1X<X3X<X#X+X:XfXgXnXbX>X%XtX%XcX>XeXtXhX(.tX>XfX>X$X%X,X~.>X>X!.1 pXXX8X' : ! ~.(.tX8X_ _ ( W.3X$X1X*X+X0XuX, [ uX, /.uXUXUX, ).-X*X1X3X#X",
",X*X,X%X+X+XyX>XAXtXtX/.dXnX4XqX,X>X8X(.>X7 xXfXyX~.%X$XrXrXcX(.7X( > ^ ! / W./ E.! ( ~.uXuX.X) yXoX*XyX%X%XuX, ).iX(.[ $X- uX)._ &X3XpX%X%X",
"+X%X,X$X+X%XyXxX>XtX%X$XtX5 zXbX:XxX[.~.yXbXhX4XtX1X$X~.eX>XfXtXOX~.Q.^.E.*X!.) eX/ ^.: / ^.) ( tX.X.X&X$X.XeX~.< [ &X] o [ uXO T.tX&X%X$X.X",
"%X$X%XtX+X%XeXxX:X$X+X+XtXqX$X5 bXbX<X$XtX~.qX!.[.Q.Q.tXcXfX5Xg.8X7XtX$X!.&XW._ tX` yXoX` / ! 7X.XqXQ..XtX X.XiX~.UXeX] - tX< 2 tXtXQ.!.Q.rX",
"%X&X%XtX+X~.eXjX:XqX~.OXtX%X$XeXoXkX>XQ..X$X$X$X7X+X>XfXhXE.7XQ.~..X8XQ.tXeX!.` ~.) rX.X$XeXyX XQ.Q.8X X7XeXrXtX~.o 7X< < W.] < g.!.rXeX.Xg.",
"$X~.$X$X$X$X$XOXbX5XqXwXwXQ.rXeXqX.X~.:X]..X X,XcXgXdX:XF.7XoXrX~.oX7X X$XXX!.^.!.` L.R.qX7XQ.rXwX8XQ.8XrX~.o - - < eX] - _ L.] o ~.U.7X7XP.",
"&XoX&X.XoX$X.X.X#XsXzXcXvXzXbXdXxX=X>XbXcXs.AXfXvX2X X.X&XrXOX!.XX!.}.XXa..XrX/ > ^.j.XXL..Xf. X XwXL. XP.O ]  X X(.- ( !.< [ I.T.] U.qXwX X",
"oX.X.X.XoX.XoX.XXXeX8 xX>X7 vX<XcX#X:XcXcX[.hX:XY.L.OX=XeX|.|.uX=XeXXX|.L..Xj.!.^. XXXrXrXoXd.L.XXg.d.f.L.2 ] R.< O ) 2 8X< ] ' g.] wX!.d.Q.",
"XXXXXXXXXXXXXXXXXX.XP.Y.L.j.a.Y.oXAX=XmXjX#X;XdXbX7 =XtXXX|.eXXX XwXwX XwX X{.=XU.L.f.P.wXf.f.rXf.f.L. X XL.1 - , g.I._ ,._ U.< ; ) I.wXwXd.",
"XXXXXX=XXX=Xs.XXXXf.s.].XX'.j.[.fX[.k.=Xj.wXU.`.6XcX8 j.g.|.}.oX X|.@XXXoXeXd.g.a.a.f.XX XU.f.d.XXj.h.a.a.f.I.U.U.j.g._ 2 < h.a.^.h.i.h.I.h.",
"j.f.j.f.f.f.f.f.f.j.=Xj.s.U.6XgX:XU.eXs.|.[.f.I.a.j.AX#XP.}.oXL.wXe.XXf.s.}.iXJXSX2Xf.w.a.f.}.}. Xf.g.wXh.g.r.d.r.s.r.g.o ^.d.a.h.d.f.r.r.p.",
"r.d.j.r.r.d.r.d.f.r.r.h.y..XgX`.U.s.j.].gXzXcX:Xe.9.'.8 K.}.g.w.f.r.r.d.U.1.5XPXCXCXs.XXXXf.f.s. Xj.d.oX!.f.g.XXj.a.s.h.h.h.a.d.j.g.h.r.r.h.",
"u.u.u.u.u.u.u.u.u.K.a.K.K.mX7 J.r.h.w.gX|.K.4 vXcX>XgX[.K.f.d.P.r.rX1XOXwX9.JX_.<.ZXy.K.r.K.i.i.r.g.g.u.a.d.s.g.s.f.s.oXj.XXa.h.a.r.r.h.i.d.",
"9.9.7.9.9.t.K.u.u.J.K.q.h.vXK.r.K.9.8 :XJ.r.K.t.`.7 :Xs.K.d.u.g.tXPXFXIXCX!.FX6.<XFX8.P.:.t.g.8.t.t.t.t.t.p.t.y.p.r.y.r.d.a.d.d.d.d.d.r.d.d.",
"3.7.J.*.&.3.5.2.4.8.i.9.u.6 J.9.N.7 mXq.u.g.u.r.K.8.9.y.g.y.K.J.CX:XH.P.ZXPX#X*.DX8X8.i.F.t. .g.p.:.t.p.:.:.y.:.t.#.t.8.6.t.p.6.t.p.p.r.p.r.",
"&.8.O.*.&.*.>.B.:.*.7.3.2.8 ,.1.8 dX9.5.t.9.1.J.t.t.y.9.9.p.6.p.d.DX2X9.p.[.K.i.JX . .2.5.J.8.>.:.:.:.:.:.:.:.:.*.*.:.*.>.*.#.#.#.#.#.#.#.6.",
"*.*.*.*.*.7.+.3.&.#.6.7.*.>.bXdX8 6.M.B.N.3.t.2.5.5.5.D.D.9.6.7.p. XSX>Xn.CXPXF.5XPXZXCX:Xt.J.6.*.#.8.*.*.*.*.*.:.>.:.>.:.:.*.:.8.*.&.*.*.*.",
"D.D.D.B.%.:.*.:.*.m.V.:.m.J.n.>.H.%.V.>.#.B.:.#.J.D.*.J.*.O.+.n.X.+.+.ZX7X5XPX!.+.=.(.5XZXJX .B.*.%.8.%.*.*.*.*.*.*.*.*.&.*.*.7.*.*.*.*.*.*.",
"D.D.D.D.D.B.D.M.B.OX5XM.#.:.$.6.%.>.K.#.&.5.M.V.#.*.&.5.*.O.u.HXSXDXFXDXM.P.).g.$X7XX.+.o.DX$X-.*.*.*.*.%.*.*.*.*.*.&.&.*.#.&.&.*.=.*.*.*.*.",
"8.K.N.F.V.O.F.O.7XPXSX~.B.M.:.$.8.=.%.%.#.V.#.B.&.N.H.B.N.n.Q.ZXQ.7XF.[.5XF.H.ZXFXKXLXSXLXSXD.D.*.*.*.%.*.*.*.*.%.*.*.*.*.%.%.*.&.&.#.$.*.&.",
"F.B.H.D.t.,.KXCXSX~.CX,.H.>.N.D.V.8.B.B.J.*.B.3.m.7.5.*.V.J.g.5Xg.XXJXLXZXCX .5XK.X.a.~. XN.3.*.*.5.*.&.&.*.&.&.&.&.*.%.&.&.&.*.#.%.&.#.*.&.",
"B.#.>.:.V.,.ZX1XSXF.KXBX+XB.m.8.B.*.8.*.B.7.8.&.J.$.N.J.J.$.D.P.DXDX5XK.+.0Xr.rX1X4.@.+.3.4.$.*.O.5.&.5.@.&.5.O.5.@.@.@.&.&.X.X.@.@.$.&.@.@.",
"5.M.K.5.:.ZXFXy.PXt.oXJXSX5X#.:.*.8.B.*.*.*.*.*.5.*.&.*.3.&.*.:.+.+.4.n.7..Xg.3.CX5.%.B.D.8.J.1.7.5.5.5.@.5.5.5.5.5.5.X.5.O.X.&.X.&.X.X.X.&.",
"y.y.#.2.CXPX>XZXAXAXCX>XFXCX8.#.8.8.*.#.8.*.*.8.8.8.8.*.7.7.5.6.*.8.7.J.3.q.CXZX5X5.O.3.9.7.3.1.5.5.5.7.5.5.5.@.@.@.@.&.&.X.O.@.X.O.X.O.O.X.",
"p.D.r.9.g.FXSXFXtXAXCXCX<X6.*.6.8.8.8.6.#.5.8.8.6.8.8.6.2.9.5.5.5.5.1.<.#. .,XAXr.X.5.1.<.@.&.2.@.@.2.&.X.@.@.@.X.@.O.@.@.X.&.O.O.X.$.X.X.O.",
"I.1.q.9.9.1.4.=X>XZX4.<.4.9.@.9.8.9.5.5.#.5.#.&.5.5.*.#.&.5.5.5.9.*.5.<.p.&.4.4.X.2.5.6.1.@.*.&.@.5.5.X.@.@.@.X.@.&.@.X.O.O.O.$.&.O.$.O.$.$.",
"t.1.1.0.1.u.0.K.PXZX1.0.9.6.1.@.5.2.5.5.2.5.3.5.5.7.7.8.5.#.@.5.<. .3.2.+.X.*.1.6.4.X.&.X.%.2.4.@.X.5.O.X.&.&.&.O.O.&.&.&.$.O.&.$.%.$.=.&.$.",
"9.1.9.1.1.1.r.<.6.9.9.<.6.1.1.7.5.2.2.2.5.3.O.3.O.O.3.O.O.X.+.+.+.O.&.#.o.+.$.4.*.#.+.<.4.%.2.X.&.O.&.&.&.$.&.O.$.&.$.$.&.$.$.&.$.&.$.N.%.B.",
"6.#.t.9.K.&.8.6.1.7.4.6.5.7.#.4.5.5.3.5.3.3.5.5.5.4.3.3.+.4.3.3.X.+.O.+.X.<.#.o.+.O.3.R.,.N.+.%.O.&.O.&.O.$.$.&.o.$.O.&.$.X.$.$.&.$.&.$.*.$.",
"=.*.%.$.*.&.&.*.>.&.3.5.#.#.#.#.&.&.&.&.5.&.&.&.5.3.O.3.+.+.+.O.+.X.3.+.+.+.+.O.n.n.6 sXmX:Xl.=.o.M.n.n.O...$.@.$.O.$.$.$.$.$.N.$.m.*.N.$.m.",
"%.M.M.M...>.M.%.$.%.%.o.O.N.N.O.&.&.@.&.&.O.O.@.$.O.O.o.+.O.+.o.O.A.n.O.V.n.&.*.X.2.6 O.c.4 w.+.%.@.*.X.#.n.=.n.m.$.m.$.m.m.$.m.m.%.m.m.M.$.",
"S.V.D.m.N.S.N.M.N.m.N.m.m.m.m.m.=.&.=.&.&.O.&.@.o.$.O.o.n.o.n.o.@.o.+.n.o.-.O.l.=.+.6 N.+.=.4 l.=.+.n.l.l.+.o.M.$.m.o.o.o.m.m.$.m.z.z.m.m.m.",
"v.M...%.N.c.V.=.M...S.>.M.M.M.m.$.m.N.$.$.m.$.$.o.N.m.m.O.o.o.o.n.o.O.=.+.A.A.l.l.A.R.E.l. .4 ,.A.l.>.6 5 6 S.l.z.z.z.m.z.z.m.z.M.c.m.m.M.z.",
"Z.V.S.v.v.S.z.D.S.V.V.b.b.c.V.z.m.c.M.m.m.m.m.m.$.m.m.$.$.$.$.O...$.%.n.>.6 sX4 R.=.C.6 >.C.,.R...6 dXkXR.5 5 b.z.z.z.z.z.z.z.z.l.c.c.z.z.c.",
"I J R Y ~ q e T v.b.Z.Z.v.b.b.S.c.c.b.c.b.c.v.c.z.m.M.m.m.m.m.m.>.A.N.C.R.jXR.5 6 bX4 4 6 V...vXdXkXS.n.-.C.E.4 b.b.z.c.b.z.b.b.b.z.b.b.b.b.",
"V R Z.V q I q J e 0 Q L Z.x.Y T H Z.x.B x.B x.x.x.x.x.x.v.v.c.z...A.D.V.R.4 A.C.n.>.E.lXR.n.v.D.M.C.C.c.M.;.sXF.c.v.v.v.v.x.b.x.x.x.x.b.b.x.",
"R e Q e e Z.q q w r e e P T Z.T H T T T T T T T T T Z.x.B x.Z.c.v.c.S.c.z.6 zX/.^.l.c.A.;.hX4 v.v.,.E.sXhXdX/.Z.c.Z.v.v.v.b.x.x.S.x.x.x.x.x.",
"T q r q 0 t e r E Z.q 0 S.H R Y | ^ R B H R H Y T V I H H I b.Y H x.S.b.Z.Z.;.E.kXhX,.C.).lXkXZ.5 lX5 W.;.b.V Z.x.B x.B B V Y V N Y T H Y T ",
"R I q I I Q 0 T W q ^ L J H I o X & Q R I T B x.R B R J J E J I J L t I J H H x.z.` dXS.S.8 R.c.kX6 ;.Z.C.G.Z.I B B H B V Y L N L L L L L L ",
"Y v.r r H q q I > e V R G.I Q ^ C.J ^ { R Y L Y I & o o z V L F F U U F U L P U S ).hXE F G F J ;.jXkXsX` G Y J H Y V N D N N U U U U L L U ",
"Y T q e S.0 T V r ~ I Z.Y G { ~ U E L Q I L R L = & e | ^ T U E Y I Y U Y L Y F ' lXV N S [ sX_ g D F t ).F V U U D U U U U U U n U n U U U ",
"E I q I e Q P B Z.L e x.Y R E ^ J T R ~ I J L = q Z.J z & I U G N S N L Y V F S kX{ S K ).fX' ).kXN z F 2 L F U h U n n n n n n b b n n n n ",
"I V P Q w T e r V t w V R U V Q P V V P ~ V = q G C w = W C Z s Z C C Z A A F P 2 K A ` hXj k j ` kX[ t kXu h z h b b b b b b b b b b b b n ",
"N G z 0 L Z F ~ Q 0 M V G N J z ^ K F F . ; w G S o - u A C C Z K K A s s s s S 6 Z n hXt f U N j m kXkX] Z u m h u h h h h b n b b b b n n ",
"n h U N N U N S h z N g F F A U ~ F A G F L F K o * G C g Z K C s Z C C Z N Z s ' dXdX[ C S N Z W Z k j j A D D h D h h n h h D h D h h h h ",
"b f f h h h d D u K j g q M j ~ & S u & D G F z . A C g s Z C A A Z Z s Z Z K g S S S S S S S S S S S S D S S S h U n h F z g F s u n u m u ",
"p b f f f f f f h f a $ = O     c A $ X . K K M ~ A C C g g A C Z s Z Z g Z g Z g S S S S S S S D S S S g S S h Z N Z s s S VXLX{ s h h h b ",
"p p p y p p a p a k l X y @ v d k s % + X g j S . X y C g K s g s g Z Z g g g Z g s g g g g h g g g g h h h h D D d P HX} VXGXM VXk d c u c ",
"y x p c p p p a v v y $ y y y x + k l - % s j u s * o % k s h u g g g g g s g d d g g d d g d d g f f d d h d f f s } GX} VXA HXMXk m l p a ",
"c c c p f c f c u v s %         = . k j s y a p c j a $ $ j f a d f h d d d d d d d d d d d d f f d y d f f f f y j l VX{ LX| VXGXl k y p p ",
"c f c b c p c f f d p a l v f c y % b v % ; & + s d d s . l j a d f j f d f f d d f d f f d p d f f y f d p y d l i } IX} HXNXk MX{ a a a l ",
"p c p c p c p p c p j v d p g c p & c k $ + @ X   X & o o y f u c f c f f f f f u f f f f f f f f d d f f y f f s y PXVX} v LXNXHX{ y a p y ",
"p a p p p i p p v l a y p l p p l & a i % l a a + $ * * v v v v f c f c f y f f f y f f f f f u p p d p f f f p f v } GXMXNX[ } } i y p f i ",
"x i i x i i i i i i x i x i p i @ . a a % @ a c a a p p p p a v x c p c p c c p p p c p p f c f f p a f a f p f c a d # MXDXj # x c p p p p ",
"i x x i x x i i x x i i i i i i l $ a +   x y @ p p i i p i x x y x i i i p p x p c p p p p p p p p p p f p p p a f z a M M a l p p p p c p ",
"x x x x x i i x x x x x x x x x @ % % = + v y p c x x v x x x v x x x x i x i y x p p c x c c c c p c p p p c p l p p a a i v i i p p i i i ",
"x x x x x x x x c x c c x x v x x @ & + a l v y v c v c v c c v x c c c x x x x x x x c x c c c c p v i x x p l v x a y # v l a x x v i x x ",
"c x c c x c c x c c c c c c c c y x v j c v v l c c l c c c c c c c c c c c c c v c v c c c v c x x x x x x x x a @ l l c p @ l v c x v x c ",
"x c x c x c c c v l l v c v l c a i @ v i v c x c c c c c c l c c c l v l c c c c c c c c c c c c c c c v c c v f v i v v p a l x x x x v v "
};
